<mxfile host="app.diagrams.net" modified="2024-04-21T13:36:23.137Z" agent="Mozilla/5.0 (Windows NT 10.0; Win64; x64) AppleWebKit/537.36 (KHTML, like Gecko) Chrome/123.0.0.0 Safari/537.36" etag="U7vQgnK5VSH67MdjQDdz" version="24.2.2" type="device" pages="3">
  <diagram id="C5RBs43oDa-KdzZeNtuy" name="Gia dinh van hoa">
    <mxGraphModel dx="1050" dy="565" grid="1" gridSize="10" guides="1" tooltips="1" connect="1" arrows="1" fold="1" page="1" pageScale="1" pageWidth="827" pageHeight="1169" math="0" shadow="0">
      <root>
        <mxCell id="WIyWlLk6GJQsqaUBKTNV-0" />
        <mxCell id="WIyWlLk6GJQsqaUBKTNV-1" parent="WIyWlLk6GJQsqaUBKTNV-0" />
        <mxCell id="hdWyBQ4bTk07JqfN7yyH-13" value="" style="edgeStyle=orthogonalEdgeStyle;rounded=0;orthogonalLoop=1;jettySize=auto;html=1;" edge="1" parent="WIyWlLk6GJQsqaUBKTNV-1" source="hdWyBQ4bTk07JqfN7yyH-0" target="hdWyBQ4bTk07JqfN7yyH-12">
          <mxGeometry relative="1" as="geometry">
            <Array as="points">
              <mxPoint x="530" y="195" />
              <mxPoint x="530" y="195" />
            </Array>
          </mxGeometry>
        </mxCell>
        <mxCell id="hdWyBQ4bTk07JqfN7yyH-0" value="Họp xét đánh giá" style="whiteSpace=wrap;html=1;aspect=fixed;" vertex="1" parent="WIyWlLk6GJQsqaUBKTNV-1">
          <mxGeometry x="200" y="50" width="310" height="310" as="geometry" />
        </mxCell>
        <mxCell id="hdWyBQ4bTk07JqfN7yyH-18" style="edgeStyle=orthogonalEdgeStyle;rounded=0;orthogonalLoop=1;jettySize=auto;html=1;exitX=1;exitY=0.3333333333333333;exitDx=0;exitDy=0;exitPerimeter=0;entryX=0;entryY=0.25;entryDx=0;entryDy=0;" edge="1" parent="WIyWlLk6GJQsqaUBKTNV-1" source="hdWyBQ4bTk07JqfN7yyH-1" target="hdWyBQ4bTk07JqfN7yyH-0">
          <mxGeometry relative="1" as="geometry" />
        </mxCell>
        <mxCell id="hdWyBQ4bTk07JqfN7yyH-1" value="Tổ trưởng tổ dân phố" style="shape=umlActor;verticalLabelPosition=bottom;verticalAlign=top;html=1;outlineConnect=0;" vertex="1" parent="WIyWlLk6GJQsqaUBKTNV-1">
          <mxGeometry x="70" y="70" width="30" height="60" as="geometry" />
        </mxCell>
        <mxCell id="hdWyBQ4bTk07JqfN7yyH-21" style="edgeStyle=orthogonalEdgeStyle;rounded=0;orthogonalLoop=1;jettySize=auto;html=1;exitX=1;exitY=0.3333333333333333;exitDx=0;exitDy=0;exitPerimeter=0;entryX=0;entryY=0.5;entryDx=0;entryDy=0;" edge="1" parent="WIyWlLk6GJQsqaUBKTNV-1" source="hdWyBQ4bTk07JqfN7yyH-2" target="hdWyBQ4bTk07JqfN7yyH-0">
          <mxGeometry relative="1" as="geometry" />
        </mxCell>
        <mxCell id="hdWyBQ4bTk07JqfN7yyH-2" value="Trưởng ban công tác mặt trận" style="shape=umlActor;verticalLabelPosition=bottom;verticalAlign=top;html=1;outlineConnect=0;" vertex="1" parent="WIyWlLk6GJQsqaUBKTNV-1">
          <mxGeometry x="70" y="180" width="30" height="60" as="geometry" />
        </mxCell>
        <mxCell id="hdWyBQ4bTk07JqfN7yyH-22" style="edgeStyle=orthogonalEdgeStyle;rounded=0;orthogonalLoop=1;jettySize=auto;html=1;exitX=1;exitY=0.3333333333333333;exitDx=0;exitDy=0;exitPerimeter=0;entryX=0;entryY=0.75;entryDx=0;entryDy=0;" edge="1" parent="WIyWlLk6GJQsqaUBKTNV-1" source="hdWyBQ4bTk07JqfN7yyH-3" target="hdWyBQ4bTk07JqfN7yyH-0">
          <mxGeometry relative="1" as="geometry" />
        </mxCell>
        <mxCell id="hdWyBQ4bTk07JqfN7yyH-3" value="Tổ chức đoàn thể" style="shape=umlActor;verticalLabelPosition=bottom;verticalAlign=top;html=1;outlineConnect=0;" vertex="1" parent="WIyWlLk6GJQsqaUBKTNV-1">
          <mxGeometry x="70" y="280" width="30" height="60" as="geometry" />
        </mxCell>
        <mxCell id="hdWyBQ4bTk07JqfN7yyH-4" value="Tiêu chí" style="swimlane;fontStyle=0;childLayout=stackLayout;horizontal=1;startSize=30;horizontalStack=0;resizeParent=1;resizeParentMax=0;resizeLast=0;collapsible=1;marginBottom=0;whiteSpace=wrap;html=1;" vertex="1" parent="WIyWlLk6GJQsqaUBKTNV-1">
          <mxGeometry x="210" y="230" width="140" height="120" as="geometry" />
        </mxCell>
        <mxCell id="hdWyBQ4bTk07JqfN7yyH-5" value="Tiêu chí 1" style="text;strokeColor=none;fillColor=none;align=left;verticalAlign=middle;spacingLeft=4;spacingRight=4;overflow=hidden;points=[[0,0.5],[1,0.5]];portConstraint=eastwest;rotatable=0;whiteSpace=wrap;html=1;" vertex="1" parent="hdWyBQ4bTk07JqfN7yyH-4">
          <mxGeometry y="30" width="140" height="30" as="geometry" />
        </mxCell>
        <mxCell id="hdWyBQ4bTk07JqfN7yyH-6" value="Tiêu chí 2" style="text;strokeColor=none;fillColor=none;align=left;verticalAlign=middle;spacingLeft=4;spacingRight=4;overflow=hidden;points=[[0,0.5],[1,0.5]];portConstraint=eastwest;rotatable=0;whiteSpace=wrap;html=1;" vertex="1" parent="hdWyBQ4bTk07JqfN7yyH-4">
          <mxGeometry y="60" width="140" height="30" as="geometry" />
        </mxCell>
        <mxCell id="hdWyBQ4bTk07JqfN7yyH-7" value="Tiêu chí 3" style="text;strokeColor=none;fillColor=none;align=left;verticalAlign=middle;spacingLeft=4;spacingRight=4;overflow=hidden;points=[[0,0.5],[1,0.5]];portConstraint=eastwest;rotatable=0;whiteSpace=wrap;html=1;" vertex="1" parent="hdWyBQ4bTk07JqfN7yyH-4">
          <mxGeometry y="90" width="140" height="30" as="geometry" />
        </mxCell>
        <mxCell id="hdWyBQ4bTk07JqfN7yyH-8" value="Danh sách đánh giá" style="swimlane;fontStyle=0;childLayout=stackLayout;horizontal=1;startSize=30;horizontalStack=0;resizeParent=1;resizeParentMax=0;resizeLast=0;collapsible=1;marginBottom=0;whiteSpace=wrap;html=1;" vertex="1" parent="WIyWlLk6GJQsqaUBKTNV-1">
          <mxGeometry x="360" y="230" width="140" height="120" as="geometry" />
        </mxCell>
        <mxCell id="hdWyBQ4bTk07JqfN7yyH-9" value="Hộ 1" style="text;strokeColor=none;fillColor=none;align=left;verticalAlign=middle;spacingLeft=4;spacingRight=4;overflow=hidden;points=[[0,0.5],[1,0.5]];portConstraint=eastwest;rotatable=0;whiteSpace=wrap;html=1;" vertex="1" parent="hdWyBQ4bTk07JqfN7yyH-8">
          <mxGeometry y="30" width="140" height="30" as="geometry" />
        </mxCell>
        <mxCell id="hdWyBQ4bTk07JqfN7yyH-10" value="Hộ 2" style="text;strokeColor=none;fillColor=none;align=left;verticalAlign=middle;spacingLeft=4;spacingRight=4;overflow=hidden;points=[[0,0.5],[1,0.5]];portConstraint=eastwest;rotatable=0;whiteSpace=wrap;html=1;" vertex="1" parent="hdWyBQ4bTk07JqfN7yyH-8">
          <mxGeometry y="60" width="140" height="30" as="geometry" />
        </mxCell>
        <mxCell id="hdWyBQ4bTk07JqfN7yyH-11" value="Hộ 3" style="text;strokeColor=none;fillColor=none;align=left;verticalAlign=middle;spacingLeft=4;spacingRight=4;overflow=hidden;points=[[0,0.5],[1,0.5]];portConstraint=eastwest;rotatable=0;whiteSpace=wrap;html=1;" vertex="1" parent="hdWyBQ4bTk07JqfN7yyH-8">
          <mxGeometry y="90" width="140" height="30" as="geometry" />
        </mxCell>
        <mxCell id="hdWyBQ4bTk07JqfN7yyH-12" value="Biên bản đánh giá" style="shape=document;whiteSpace=wrap;html=1;boundedLbl=1;" vertex="1" parent="WIyWlLk6GJQsqaUBKTNV-1">
          <mxGeometry x="600" y="40" width="205" height="310" as="geometry" />
        </mxCell>
      </root>
    </mxGraphModel>
  </diagram>
  <diagram id="jvsBq2tUYGO_8dAk7Cyp" name="Thôn, tổ dân phố văn hóa">
    <mxGraphModel dx="1050" dy="565" grid="1" gridSize="10" guides="1" tooltips="1" connect="1" arrows="1" fold="1" page="1" pageScale="1" pageWidth="827" pageHeight="1169" math="0" shadow="0">
      <root>
        <mxCell id="0" />
        <mxCell id="1" parent="0" />
        <mxCell id="8CbbsHcei-K3b9hixV34-3" value="" style="edgeStyle=orthogonalEdgeStyle;rounded=0;orthogonalLoop=1;jettySize=auto;html=1;verticalAlign=middle;" edge="1" parent="1" source="8CbbsHcei-K3b9hixV34-1" target="8CbbsHcei-K3b9hixV34-2">
          <mxGeometry relative="1" as="geometry" />
        </mxCell>
        <mxCell id="8CbbsHcei-K3b9hixV34-1" value="Tổ trưởng tổ dân phố" style="shape=umlActor;verticalLabelPosition=bottom;verticalAlign=middle;html=1;outlineConnect=0;" vertex="1" parent="1">
          <mxGeometry x="50" y="80" width="30" height="60" as="geometry" />
        </mxCell>
        <mxCell id="8CbbsHcei-K3b9hixV34-5" value="" style="edgeStyle=orthogonalEdgeStyle;rounded=0;orthogonalLoop=1;jettySize=auto;html=1;verticalAlign=middle;" edge="1" parent="1" source="8CbbsHcei-K3b9hixV34-2" target="8CbbsHcei-K3b9hixV34-4">
          <mxGeometry relative="1" as="geometry" />
        </mxCell>
        <mxCell id="8CbbsHcei-K3b9hixV34-2" value="Báo cáo thành tích" style="whiteSpace=wrap;html=1;verticalAlign=middle;" vertex="1" parent="1">
          <mxGeometry x="115" y="80" width="120" height="60" as="geometry" />
        </mxCell>
        <mxCell id="8CbbsHcei-K3b9hixV34-7" value="" style="edgeStyle=orthogonalEdgeStyle;rounded=0;orthogonalLoop=1;jettySize=auto;html=1;verticalAlign=middle;" edge="1" parent="1" source="8CbbsHcei-K3b9hixV34-4" target="8CbbsHcei-K3b9hixV34-6">
          <mxGeometry relative="1" as="geometry" />
        </mxCell>
        <mxCell id="8CbbsHcei-K3b9hixV34-13" value="" style="edgeStyle=orthogonalEdgeStyle;rounded=0;orthogonalLoop=1;jettySize=auto;html=1;verticalAlign=middle;" edge="1" parent="1" source="8CbbsHcei-K3b9hixV34-4" target="8CbbsHcei-K3b9hixV34-12">
          <mxGeometry relative="1" as="geometry" />
        </mxCell>
        <mxCell id="8CbbsHcei-K3b9hixV34-4" value="UBND cấp Xã" style="shape=trapezoid;perimeter=trapezoidPerimeter;whiteSpace=wrap;html=1;fixedSize=1;verticalAlign=middle;" vertex="1" parent="1">
          <mxGeometry x="315" y="80" width="120" height="60" as="geometry" />
        </mxCell>
        <mxCell id="8CbbsHcei-K3b9hixV34-9" value="" style="edgeStyle=orthogonalEdgeStyle;rounded=0;orthogonalLoop=1;jettySize=auto;html=1;verticalAlign=middle;" edge="1" parent="1" source="8CbbsHcei-K3b9hixV34-6" target="8CbbsHcei-K3b9hixV34-8">
          <mxGeometry relative="1" as="geometry" />
        </mxCell>
        <mxCell id="8CbbsHcei-K3b9hixV34-6" value="Họp hội đồng thi đua khen thưởng" style="ellipse;whiteSpace=wrap;html=1;verticalAlign=middle;" vertex="1" parent="1">
          <mxGeometry x="535" y="70" width="115" height="110" as="geometry" />
        </mxCell>
        <mxCell id="8CbbsHcei-K3b9hixV34-10" style="edgeStyle=orthogonalEdgeStyle;rounded=0;orthogonalLoop=1;jettySize=auto;html=1;entryX=1;entryY=0.5;entryDx=0;entryDy=0;verticalAlign=middle;" edge="1" parent="1" source="8CbbsHcei-K3b9hixV34-8" target="8CbbsHcei-K3b9hixV34-12">
          <mxGeometry relative="1" as="geometry">
            <Array as="points">
              <mxPoint x="435" y="320" />
            </Array>
          </mxGeometry>
        </mxCell>
        <mxCell id="8CbbsHcei-K3b9hixV34-8" value="Đánh giá, lập danh sách tổ dân phố đạt chuẩn" style="whiteSpace=wrap;html=1;verticalAlign=middle;" vertex="1" parent="1">
          <mxGeometry x="532.5" y="285" width="120" height="60" as="geometry" />
        </mxCell>
        <mxCell id="8CbbsHcei-K3b9hixV34-15" value="" style="edgeStyle=orthogonalEdgeStyle;rounded=0;orthogonalLoop=1;jettySize=auto;html=1;verticalAlign=middle;" edge="1" parent="1" source="8CbbsHcei-K3b9hixV34-12" target="8CbbsHcei-K3b9hixV34-14">
          <mxGeometry relative="1" as="geometry" />
        </mxCell>
        <mxCell id="8CbbsHcei-K3b9hixV34-12" value="Lập hồ sơ theo khoản 2 điều 7" style="whiteSpace=wrap;html=1;verticalAlign=middle;" vertex="1" parent="1">
          <mxGeometry x="315" y="285" width="120" height="60" as="geometry" />
        </mxCell>
        <mxCell id="8CbbsHcei-K3b9hixV34-16" style="edgeStyle=orthogonalEdgeStyle;rounded=0;orthogonalLoop=1;jettySize=auto;html=1;verticalAlign=middle;" edge="1" parent="1" source="8CbbsHcei-K3b9hixV34-14" target="8CbbsHcei-K3b9hixV34-1">
          <mxGeometry relative="1" as="geometry" />
        </mxCell>
        <mxCell id="8CbbsHcei-K3b9hixV34-14" value="Bằng chứng nhận thôn, tổ dân phố tiêu biểu" style="shape=hexagon;perimeter=hexagonPerimeter2;whiteSpace=wrap;html=1;fixedSize=1;verticalAlign=middle;" vertex="1" parent="1">
          <mxGeometry x="115" y="275" width="120" height="80" as="geometry" />
        </mxCell>
      </root>
    </mxGraphModel>
  </diagram>
  <diagram id="W-A6H8vhbi1r0uJislWy" name="Xã, Phường, Thị trấn tiêu biểu">
    <mxGraphModel dx="1877" dy="565" grid="1" gridSize="10" guides="1" tooltips="1" connect="1" arrows="1" fold="1" page="1" pageScale="1" pageWidth="827" pageHeight="1169" math="0" shadow="0">
      <root>
        <mxCell id="0" />
        <mxCell id="1" parent="0" />
        <mxCell id="YHFharZTh5v2XYamGZIT-4" value="" style="edgeStyle=orthogonalEdgeStyle;rounded=0;orthogonalLoop=1;jettySize=auto;html=1;" edge="1" parent="1" source="YHFharZTh5v2XYamGZIT-1" target="YHFharZTh5v2XYamGZIT-3">
          <mxGeometry relative="1" as="geometry" />
        </mxCell>
        <mxCell id="YHFharZTh5v2XYamGZIT-1" value="UBND Xã, Phường" style="shape=umlActor;verticalLabelPosition=bottom;verticalAlign=top;html=1;outlineConnect=0;" vertex="1" parent="1">
          <mxGeometry x="50" y="30" width="30" height="60" as="geometry" />
        </mxCell>
        <mxCell id="YHFharZTh5v2XYamGZIT-9" style="edgeStyle=orthogonalEdgeStyle;rounded=0;orthogonalLoop=1;jettySize=auto;html=1;entryX=0.5;entryY=0;entryDx=0;entryDy=0;" edge="1" parent="1" source="YHFharZTh5v2XYamGZIT-3" target="YHFharZTh5v2XYamGZIT-8">
          <mxGeometry relative="1" as="geometry" />
        </mxCell>
        <mxCell id="YHFharZTh5v2XYamGZIT-3" value="Báo cáo thành tích" style="shape=document;whiteSpace=wrap;html=1;boundedLbl=1;verticalAlign=top;" vertex="1" parent="1">
          <mxGeometry x="180" y="20" width="120" height="80" as="geometry" />
        </mxCell>
        <mxCell id="YHFharZTh5v2XYamGZIT-10" style="edgeStyle=orthogonalEdgeStyle;rounded=0;orthogonalLoop=1;jettySize=auto;html=1;entryX=0;entryY=0.5;entryDx=0;entryDy=0;" edge="1" parent="1" source="YHFharZTh5v2XYamGZIT-5" target="YHFharZTh5v2XYamGZIT-8">
          <mxGeometry relative="1" as="geometry" />
        </mxCell>
        <mxCell id="YHFharZTh5v2XYamGZIT-5" value="UBND Huyện, TP" style="shape=umlActor;verticalLabelPosition=bottom;verticalAlign=top;html=1;outlineConnect=0;" vertex="1" parent="1">
          <mxGeometry x="50" y="180" width="30" height="60" as="geometry" />
        </mxCell>
        <mxCell id="YHFharZTh5v2XYamGZIT-12" value="" style="edgeStyle=orthogonalEdgeStyle;rounded=0;orthogonalLoop=1;jettySize=auto;html=1;" edge="1" parent="1" source="YHFharZTh5v2XYamGZIT-8" target="YHFharZTh5v2XYamGZIT-11">
          <mxGeometry relative="1" as="geometry" />
        </mxCell>
        <mxCell id="YHFharZTh5v2XYamGZIT-8" value="Hội đồng thi đua - khen thưởng" style="rhombus;whiteSpace=wrap;html=1;" vertex="1" parent="1">
          <mxGeometry x="175" y="135" width="130" height="150" as="geometry" />
        </mxCell>
        <mxCell id="YHFharZTh5v2XYamGZIT-14" value="" style="edgeStyle=orthogonalEdgeStyle;rounded=0;orthogonalLoop=1;jettySize=auto;html=1;" edge="1" parent="1" source="YHFharZTh5v2XYamGZIT-11" target="YHFharZTh5v2XYamGZIT-13">
          <mxGeometry relative="1" as="geometry" />
        </mxCell>
        <mxCell id="YHFharZTh5v2XYamGZIT-11" value="Danh sách UBND xã, phường đạt tiêu chuẩn" style="whiteSpace=wrap;html=1;" vertex="1" parent="1">
          <mxGeometry x="390" y="180" width="120" height="60" as="geometry" />
        </mxCell>
        <mxCell id="YHFharZTh5v2XYamGZIT-19" style="edgeStyle=orthogonalEdgeStyle;rounded=0;orthogonalLoop=1;jettySize=auto;html=1;entryX=0.5;entryY=0;entryDx=0;entryDy=0;" edge="1" parent="1" source="YHFharZTh5v2XYamGZIT-13" target="YHFharZTh5v2XYamGZIT-17">
          <mxGeometry relative="1" as="geometry" />
        </mxCell>
        <mxCell id="YHFharZTh5v2XYamGZIT-13" value="Lập hồ sơ theo khoản 3 điều 7" style="rounded=1;whiteSpace=wrap;html=1;" vertex="1" parent="1">
          <mxGeometry x="590" y="180" width="120" height="60" as="geometry" />
        </mxCell>
        <mxCell id="YHFharZTh5v2XYamGZIT-18" style="edgeStyle=orthogonalEdgeStyle;rounded=0;orthogonalLoop=1;jettySize=auto;html=1;entryX=0;entryY=0.5;entryDx=0;entryDy=0;" edge="1" parent="1" source="YHFharZTh5v2XYamGZIT-15" target="YHFharZTh5v2XYamGZIT-17">
          <mxGeometry relative="1" as="geometry" />
        </mxCell>
        <mxCell id="YHFharZTh5v2XYamGZIT-15" value="Chủ tịch UBND Huyện, TP" style="shape=umlActor;verticalLabelPosition=bottom;verticalAlign=top;html=1;outlineConnect=0;" vertex="1" parent="1">
          <mxGeometry x="50" y="330" width="30" height="60" as="geometry" />
        </mxCell>
        <mxCell id="YHFharZTh5v2XYamGZIT-17" value="&lt;br&gt;&lt;span class=&quot;BodyTextChar1&quot;&gt;&lt;span style=&quot;font-size:10.0pt;&lt;br/&gt;font-family:&amp;quot;Arial&amp;quot;,sans-serif;mso-fareast-font-family:&amp;quot;Times New Roman&amp;quot;;&lt;br/&gt;color:black;mso-ansi-language:VI;mso-fareast-language:VI;mso-bidi-language:&lt;br/&gt;AR-SA&quot;&gt;quyết định tặng danh hiệu (Mẫu số 12 của Phụ lục IV kèm theo Nghị định&lt;br&gt;này) và bằng chứng nhận “Xã, phường, thị trấn tiêu biểu”&lt;/span&gt;&lt;/span&gt;" style="shape=hexagon;perimeter=hexagonPerimeter2;whiteSpace=wrap;html=1;fixedSize=1;verticalAlign=middle;" vertex="1" parent="1">
          <mxGeometry x="525" y="320" width="250" height="120" as="geometry" />
        </mxCell>
        <mxCell id="YHFharZTh5v2XYamGZIT-20" style="edgeStyle=orthogonalEdgeStyle;rounded=0;orthogonalLoop=1;jettySize=auto;html=1;entryX=0.5;entryY=0;entryDx=0;entryDy=0;entryPerimeter=0;" edge="1" parent="1" source="YHFharZTh5v2XYamGZIT-17" target="YHFharZTh5v2XYamGZIT-1">
          <mxGeometry relative="1" as="geometry">
            <Array as="points">
              <mxPoint x="810" y="380" />
              <mxPoint x="810" y="10" />
              <mxPoint x="65" y="10" />
            </Array>
          </mxGeometry>
        </mxCell>
      </root>
    </mxGraphModel>
  </diagram>
</mxfile>
